<svg width="529" height="328" viewBox="0 0 529 328" xmlns="http://www.w3.org/2000/svg" xmlns:xlink="http://www.w3.org/1999/xlink"><defs><g id="c"><animateTransform attributeName="transform" type="rotate" from="0 327 327" to="360 327 327" dur="50s" repeatCount="indefinite"/><use xlink:href="#a"/></g><g id="e"><animateTransform attributeName="transform" type="rotate" from="360 327 327" to="0 327 327" dur="50s" repeatCount="indefinite"/><use xlink:href="#a"/></g><g id="l"><animateTransform attributeName="transform" type="translate" from="0 0" to="0 331" dur="5s" repeatCount="1" fill="freeze"/><use xlink:href="#b"/></g><g id="j"><animateTransform attributeName="transform" type="translate" from="0 0" to="0 662" dur="10s" repeatCount="indefinite"/><use xlink:href="#b" y="-331"/></g><g id="m"><animateTransform attributeName="transform" type="translate" from="0 0" to="0 662" dur="10s" begin="5s" repeatCount="indefinite"/><use xlink:href="#b" y="-331"/></g><g id="b"><circle fill="#00386C" cx="2.5" cy="92.5" r="2.5"/><circle fill="#43AE7A" cx="2.5" cy="82.5" r="2.5"/><circle fill="#43AE7A" cx="2.5" cy="72.5" r="2.5"/><circle fill="#FCC79B" cx="2.5" cy="62.5" r="2.5"/><circle fill="#00386C" cx="2.5" cy="52.5" r="2.5"/><circle fill="#E365A6" cx="2.5" cy="42.5" r="2.5"/><circle fill="#43AE7A" cx="2.5" cy="32.5" r="2.5"/><circle fill="#00386C" cx="2.5" cy="22.5" r="2.5"/><circle fill="#B9E5FA" cx="2.5" cy="12.5" r="2.5"/><circle fill="#43AE7A" cx="2.5" cy="2.5" r="2.5"/><circle fill="#00386C" cx="2.5" cy="324.5" r="2.5"/><circle fill="#43AE7A" cx="2.5" cy="314.5" r="2.5"/><circle fill="#43AE7A" cx="2.5" cy="304.5" r="2.5"/><circle fill="#43AE7A" cx="2.5" cy="294.5" r="2.5"/><circle fill="#00386C" cx="2.5" cy="284.5" r="2.5"/><circle fill="#E365A6" cx="2.5" cy="274.5" r="2.5"/><circle fill="#43AE7A" cx="2.5" cy="264.5" r="2.5"/><circle fill="#00386C" cx="2.5" cy="254.5" r="2.5"/><circle fill="#B9E5FA" cx="2.5" cy="244.5" r="2.5"/><circle fill="#43AE7A" cx="2.5" cy="234.5" r="2.5"/><circle fill="#43AE7A" cx="2.5" cy="224.5" r="2.5"/><circle fill="#FCC79B" cx="2.5" cy="214.5" r="2.5"/><circle fill="#43AE7A" cx="2.5" cy="204.5" r="2.5"/><circle fill="#43AE7A" cx="2.5" cy="194.5" r="2.5"/><circle fill="#00386C" cx="2.5" cy="184.5" r="2.5"/><circle fill="#E365A6" cx="2.5" cy="174.5" r="2.5"/><circle fill="#43AE7A" cx="2.5" cy="164.5" r="2.5"/><circle fill="#43AE7A" cx="2.5" cy="154.5" r="2.5"/><circle fill="#00386C" cx="2.5" cy="144.5" r="2.5"/><circle fill="#43AE7A" cx="2.5" cy="134.5" r="2.5"/><circle fill="#B9E5FA" cx="2.5" cy="124.5" r="2.5"/><circle fill="#5EEBA7" cx="2.5" cy="114.5" r="2.5"/><circle fill="#43AE7A" cx="2.5" cy="104.5" r="2.5"/><path fill="none" d="M0 0h20v331H0z"/></g><g id="a"><circle fill="#43AE7A" cx="652.5" cy="327.5" r="2.5"/><circle fill="#43AE7A" transform="rotate(2 652.34 337.708)" cx="652.34" cy="337.708" r="2.5"/><circle fill="#43AE7A" transform="rotate(4 651.859 347.907)" cx="651.859" cy="347.907" r="2.5"/><circle fill="#FCC79B" transform="rotate(5 651.058 358.085)" cx="651.058" cy="358.085" r="2.5"/><circle fill="#B0CEEB" transform="rotate(7 649.937 368.233)" cx="649.937" cy="368.233" r="2.5"/><circle fill="#43AE7A" transform="rotate(9 648.499 378.341)" cx="648.499" cy="378.341" r="2.5"/><circle fill="#43AE7A" transform="rotate(11 646.743 388.399)" cx="646.743" cy="388.399" r="2.5"/><circle fill="#43AE7A" transform="rotate(13 644.673 398.397)" cx="644.673" cy="398.397" r="2.5"/><circle fill="#43AE7A" transform="rotate(14 642.29 408.324)" cx="642.29" cy="408.324" r="2.5"/><circle fill="#FCC79B" transform="rotate(16 639.595 418.172)" cx="639.595" cy="418.172" r="2.5"/><circle fill="#43AE7A" transform="rotate(18 636.593 427.93)" cx="636.593" cy="427.931" r="2.5"/><circle fill="#5EEBA7" transform="rotate(20 633.286 437.59)" cx="633.286" cy="437.59" r="2.5"/><circle fill="#E365A6" transform="rotate(22 629.677 447.14)" cx="629.677" cy="447.14" r="2.5"/><circle fill="#43AE7A" transform="rotate(23 625.77 456.573)" cx="625.77" cy="456.573" r="2.5"/><circle fill="#00386C" transform="rotate(25 621.569 465.878)" cx="621.569" cy="465.878" r="2.5"/><circle fill="#43AE7A" transform="rotate(27 617.077 475.047)" cx="617.077" cy="475.047" r="2.5"/><circle fill="#43AE7A" transform="rotate(29 612.3 484.07)" cx="612.3" cy="484.07" r="2.5"/><circle fill="#E365A6" transform="rotate(31 607.241 492.938)" cx="607.241" cy="492.938" r="2.5"/><circle fill="#B0CEEB" transform="rotate(32 601.907 501.644)" cx="601.907" cy="501.644" r="2.5"/><circle fill="#43AE7A" transform="rotate(34 596.301 510.177)" cx="596.301" cy="510.177" r="2.5"/><circle fill="#43AE7A" transform="rotate(36 590.43 518.53)" cx="590.431" cy="518.53" r="2.5"/><circle fill="#43AE7A" transform="rotate(38 584.3 526.695)" cx="584.3" cy="526.695" r="2.5"/><circle fill="#E365A6" transform="rotate(40 577.917 534.663)" cx="577.917" cy="534.663" r="2.5"/><circle fill="#43AE7A" transform="rotate(41 571.286 542.426)" cx="571.286" cy="542.426" r="2.5"/><circle fill="#43AE7A" transform="rotate(43 564.415 549.978)" cx="564.415" cy="549.978" r="2.5"/><circle fill="#5EEBA7" transform="rotate(45 557.31 557.31)" cx="557.31" cy="557.31" r="2.5"/><circle fill="#43AE7A" transform="rotate(47 549.978 564.415)" cx="549.978" cy="564.415" r="2.5"/><circle fill="#43AE7A" transform="rotate(49 542.426 571.286)" cx="542.426" cy="571.286" r="2.5"/><circle fill="#43AE7A" transform="rotate(50 534.663 577.917)" cx="534.663" cy="577.917" r="2.5"/><circle fill="#00386C" transform="rotate(52 526.695 584.3)" cx="526.695" cy="584.3" r="2.5"/><circle fill="#43AE7A" transform="rotate(54 518.53 590.43)" cx="518.53" cy="590.431" r="2.5"/><circle fill="#E365A6" transform="rotate(56 510.177 596.301)" cx="510.177" cy="596.301" r="2.5"/><circle fill="#43AE7A" transform="rotate(58 501.644 601.907)" cx="501.644" cy="601.907" r="2.5"/><circle fill="#B0CEEB" transform="rotate(59 492.938 607.241)" cx="492.938" cy="607.241" r="2.5"/><circle fill="#43AE7A" transform="rotate(61 484.07 612.3)" cx="484.07" cy="612.3" r="2.5"/><circle fill="#5EEBA7" transform="rotate(63 475.047 617.077)" cx="475.047" cy="617.077" r="2.5"/><circle fill="#00386C" transform="rotate(65 465.878 621.569)" cx="465.878" cy="621.569" r="2.5"/><circle fill="#43AE7A" transform="rotate(67 456.573 625.77)" cx="456.573" cy="625.77" r="2.5"/><circle fill="#43AE7A" transform="rotate(68 447.14 629.677)" cx="447.14" cy="629.677" r="2.5"/><circle fill="#43AE7A" transform="rotate(70 437.59 633.286)" cx="437.59" cy="633.286" r="2.5"/><circle fill="#FCC79B" transform="rotate(72 427.93 636.593)" cx="427.931" cy="636.593" r="2.5"/><circle fill="#43AE7A" transform="rotate(74 418.172 639.595)" cx="418.172" cy="639.595" r="2.5"/><circle fill="#43AE7A" transform="rotate(76 408.324 642.29)" cx="408.324" cy="642.29" r="2.5"/><circle fill="#43AE7A" transform="rotate(77 398.397 644.673)" cx="398.397" cy="644.673" r="2.5"/><circle fill="#E365A6" transform="rotate(79 388.399 646.743)" cx="388.399" cy="646.743" r="2.5"/><circle fill="#43AE7A" transform="rotate(81 378.341 648.499)" cx="378.341" cy="648.499" r="2.5"/><circle fill="#00386C" transform="rotate(83 368.233 649.937)" cx="368.233" cy="649.937" r="2.5"/><circle fill="#5EEBA7" transform="rotate(85 358.085 651.058)" cx="358.085" cy="651.058" r="2.5"/><circle fill="#43AE7A" transform="rotate(86 347.907 651.859)" cx="347.907" cy="651.859" r="2.5"/><circle fill="#43AE7A" transform="rotate(88 337.708 652.34)" cx="337.708" cy="652.34" r="2.5"/><circle fill="#00386C" transform="rotate(90 327.5 652.5)" cx="327.5" cy="652.5" r="2.5"/><circle fill="#43AE7A" transform="rotate(92 317.292 652.34)" cx="317.292" cy="652.34" r="2.5"/><circle fill="#43AE7A" transform="rotate(94 307.093 651.859)" cx="307.093" cy="651.859" r="2.5"/><circle fill="#43AE7A" transform="rotate(95 296.915 651.058)" cx="296.915" cy="651.058" r="2.5"/><circle fill="#43AE7A" transform="rotate(97 286.767 649.937)" cx="286.767" cy="649.937" r="2.5"/><circle fill="#43AE7A" transform="rotate(99 276.659 648.499)" cx="276.659" cy="648.499" r="2.5"/><circle fill="#43AE7A" transform="rotate(101 266.601 646.743)" cx="266.601" cy="646.743" r="2.5"/><circle fill="#FCC79B" transform="rotate(103 256.603 644.673)" cx="256.603" cy="644.673" r="2.5"/><circle fill="#00386C" transform="rotate(104 246.676 642.29)" cx="246.676" cy="642.29" r="2.5"/><circle fill="#E365A6" transform="rotate(106 236.828 639.595)" cx="236.828" cy="639.595" r="2.5"/><circle fill="#43AE7A" transform="rotate(108 227.07 636.593)" cx="227.069" cy="636.593" r="2.5"/><circle fill="#43AE7A" transform="rotate(110 217.41 633.286)" cx="217.41" cy="633.286" r="2.5"/><circle fill="#5EEBA7" transform="rotate(112 207.86 629.677)" cx="207.86" cy="629.677" r="2.5"/><circle fill="#43AE7A" transform="rotate(113 198.427 625.77)" cx="198.427" cy="625.77" r="2.5"/><circle fill="#43AE7A" transform="rotate(115 189.122 621.569)" cx="189.122" cy="621.569" r="2.5"/><circle fill="#43AE7A" transform="rotate(117 179.953 617.077)" cx="179.953" cy="617.077" r="2.5"/><circle fill="#B0CEEB" transform="rotate(119 170.93 612.3)" cx="170.93" cy="612.3" r="2.5"/><circle fill="#43AE7A" transform="rotate(121 162.062 607.241)" cx="162.062" cy="607.241" r="2.5"/><circle fill="#43AE7A" transform="rotate(122 153.356 601.907)" cx="153.356" cy="601.907" r="2.5"/><circle fill="#E365A6" transform="rotate(124 144.823 596.301)" cx="144.823" cy="596.301" r="2.5"/><circle fill="#FCC79B" transform="rotate(126 136.47 590.43)" cx="136.47" cy="590.431" r="2.5"/><circle fill="#E365A6" transform="rotate(128 128.305 584.3)" cx="128.305" cy="584.3" r="2.5"/><circle fill="#43AE7A" transform="rotate(130 120.337 577.917)" cx="120.337" cy="577.917" r="2.5"/><circle fill="#FCC79B" transform="rotate(131 112.574 571.286)" cx="112.574" cy="571.286" r="2.5"/><circle fill="#00386C" transform="rotate(133 105.022 564.415)" cx="105.022" cy="564.415" r="2.5"/><circle fill="#43AE7A" transform="rotate(135 97.69 557.31)" cx="97.69" cy="557.31" r="2.5"/><circle fill="#43AE7A" transform="rotate(137 90.585 549.978)" cx="90.585" cy="549.978" r="2.5"/><circle fill="#5EEBA7" transform="rotate(139 83.714 542.426)" cx="83.714" cy="542.426" r="2.5"/><circle fill="#43AE7A" transform="rotate(140 77.083 534.663)" cx="77.083" cy="534.663" r="2.5"/><circle fill="#43AE7A" transform="rotate(142 70.7 526.695)" cx="70.7" cy="526.695" r="2.5"/><circle fill="#43AE7A" transform="rotate(144 64.57 518.53)" cx="64.569" cy="518.53" r="2.5"/><circle fill="#FCC79B" transform="rotate(146 58.699 510.177)" cx="58.699" cy="510.177" r="2.5"/><circle fill="#43AE7A" transform="rotate(148 53.093 501.644)" cx="53.093" cy="501.644" r="2.5"/><circle fill="#43AE7A" transform="rotate(149 47.759 492.938)" cx="47.759" cy="492.938" r="2.5"/><circle fill="#43AE7A" transform="rotate(151 42.7 484.07)" cx="42.7" cy="484.07" r="2.5"/><circle fill="#E365A6" transform="rotate(153 37.923 475.047)" cx="37.923" cy="475.047" r="2.5"/><circle fill="#43AE7A" transform="rotate(155 33.431 465.878)" cx="33.431" cy="465.878" r="2.5"/><circle fill="#43AE7A" transform="rotate(157 29.23 456.573)" cx="29.23" cy="456.573" r="2.5"/><circle fill="#5EEBA7" transform="rotate(158 25.323 447.14)" cx="25.323" cy="447.14" r="2.5"/><circle fill="#00386C" transform="rotate(160 21.714 437.59)" cx="21.714" cy="437.59" r="2.5"/><circle fill="#E365A6" transform="rotate(162 18.407 427.93)" cx="18.407" cy="427.931" r="2.5"/><circle fill="#43AE7A" transform="rotate(164 15.405 418.172)" cx="15.405" cy="418.172" r="2.5"/><circle fill="#43AE7A" transform="rotate(166 12.71 408.324)" cx="12.71" cy="408.324" r="2.5"/><circle fill="#43AE7A" transform="rotate(167 10.327 398.397)" cx="10.327" cy="398.397" r="2.5"/><circle fill="#43AE7A" transform="rotate(169 8.257 388.399)" cx="8.257" cy="388.399" r="2.5"/><circle fill="#43AE7A" transform="rotate(171 6.501 378.341)" cx="6.501" cy="378.341" r="2.5"/><circle fill="#43AE7A" transform="rotate(173 5.063 368.233)" cx="5.063" cy="368.233" r="2.5"/><circle fill="#43AE7A" transform="rotate(175 3.942 358.085)" cx="3.942" cy="358.085" r="2.5"/><circle fill="#FCC79B" transform="rotate(176 3.141 347.907)" cx="3.141" cy="347.907" r="2.5"/><circle fill="#5EEBA7" transform="rotate(178 2.66 337.708)" cx="2.66" cy="337.708" r="2.5"/><circle fill="#00386C" transform="rotate(180 2.5 327.5)" cx="2.5" cy="327.5" r="2.5"/><circle fill="#43AE7A" transform="rotate(-178 2.66 317.292)" cx="2.66" cy="317.292" r="2.5"/><circle fill="#E365A6" transform="rotate(-176 3.141 307.093)" cx="3.141" cy="307.093" r="2.5"/><circle fill="#43AE7A" transform="rotate(-175 3.942 296.915)" cx="3.942" cy="296.915" r="2.5"/><circle fill="#FCC79B" transform="rotate(-173 5.063 286.767)" cx="5.063" cy="286.767" r="2.5"/><circle fill="#43AE7A" transform="rotate(-171 6.501 276.659)" cx="6.501" cy="276.659" r="2.5"/><circle fill="#43AE7A" transform="rotate(-169 8.257 266.601)" cx="8.257" cy="266.601" r="2.5"/><circle fill="#E365A6" transform="rotate(-167 10.327 256.603)" cx="10.327" cy="256.603" r="2.5"/><circle fill="#43AE7A" transform="rotate(-166 12.71 246.676)" cx="12.71" cy="246.676" r="2.5"/><circle fill="#B0CEEB" transform="rotate(-164 15.405 236.828)" cx="15.405" cy="236.828" r="2.5"/><circle fill="#43AE7A" transform="rotate(-162 18.407 227.07)" cx="18.407" cy="227.069" r="2.5"/><circle fill="#43AE7A" transform="rotate(-160 21.714 217.41)" cx="21.714" cy="217.41" r="2.5"/><circle fill="#43AE7A" transform="rotate(-158 25.323 207.86)" cx="25.323" cy="207.86" r="2.5"/><circle fill="#E365A6" transform="rotate(-157 29.23 198.427)" cx="29.23" cy="198.427" r="2.5"/><circle fill="#43AE7A" transform="rotate(-155 33.431 189.122)" cx="33.431" cy="189.122" r="2.5"/><circle fill="#43AE7A" transform="rotate(-153 37.923 179.953)" cx="37.923" cy="179.953" r="2.5"/><circle fill="#5EEBA7" transform="rotate(-151 42.7 170.93)" cx="42.7" cy="170.93" r="2.5"/><circle fill="#43AE7A" transform="rotate(-149 47.759 162.062)" cx="47.759" cy="162.062" r="2.5"/><circle fill="#FCC79B" transform="rotate(-148 53.093 153.356)" cx="53.093" cy="153.356" r="2.5"/><circle fill="#43AE7A" transform="rotate(-146 58.699 144.823)" cx="58.699" cy="144.823" r="2.5"/><circle fill="#43AE7A" transform="rotate(-144 64.57 136.47)" cx="64.569" cy="136.47" r="2.5"/><circle fill="#00386C" transform="rotate(-142 70.7 128.305)" cx="70.7" cy="128.305" r="2.5"/><circle fill="#E365A6" transform="rotate(-140 77.083 120.337)" cx="77.083" cy="120.337" r="2.5"/><circle fill="#43AE7A" transform="rotate(-139 83.714 112.574)" cx="83.714" cy="112.574" r="2.5"/><circle fill="#43AE7A" transform="rotate(-137 90.585 105.022)" cx="90.585" cy="105.022" r="2.5"/><circle fill="#43AE7A" transform="rotate(-135 97.69 97.69)" cx="97.69" cy="97.69" r="2.5"/><circle fill="#43AE7A" transform="rotate(-133 105.022 90.585)" cx="105.022" cy="90.585" r="2.5"/><circle fill="#B0CEEB" transform="rotate(-131 112.574 83.714)" cx="112.574" cy="83.714" r="2.5"/><circle fill="#43AE7A" transform="rotate(-130 120.337 77.083)" cx="120.337" cy="77.083" r="2.5"/><circle fill="#43AE7A" transform="rotate(-128 128.305 70.7)" cx="128.305" cy="70.7" r="2.5"/><circle fill="#43AE7A" transform="rotate(-126 136.47 64.57)" cx="136.47" cy="64.569" r="2.5"/><circle fill="#43AE7A" transform="rotate(-124 144.823 58.699)" cx="144.823" cy="58.699" r="2.5"/><circle fill="#E365A6" transform="rotate(-122 153.356 53.093)" cx="153.356" cy="53.093" r="2.5"/><circle fill="#43AE7A" transform="rotate(-121 162.062 47.759)" cx="162.062" cy="47.759" r="2.5"/><circle fill="#43AE7A" transform="rotate(-119 170.93 42.7)" cx="170.93" cy="42.7" r="2.5"/><circle fill="#FCC79B" transform="rotate(-117 179.953 37.923)" cx="179.953" cy="37.923" r="2.5"/><circle fill="#5EEBA7" transform="rotate(-115 189.122 33.431)" cx="189.122" cy="33.431" r="2.5"/><circle fill="#43AE7A" transform="rotate(-113 198.427 29.23)" cx="198.427" cy="29.23" r="2.5"/><circle fill="#43AE7A" transform="rotate(-112 207.86 25.323)" cx="207.86" cy="25.323" r="2.5"/><circle fill="#43AE7A" transform="rotate(-110 217.41 21.714)" cx="217.41" cy="21.714" r="2.5"/><circle fill="#E365A6" transform="rotate(-108 227.07 18.407)" cx="227.069" cy="18.407" r="2.5"/><circle fill="#B0CEEB" transform="rotate(-106 236.828 15.405)" cx="236.828" cy="15.405" r="2.5"/><circle fill="#43AE7A" transform="rotate(-104 246.676 12.71)" cx="246.676" cy="12.71" r="2.5"/><circle fill="#43AE7A" transform="rotate(-103 256.603 10.327)" cx="256.603" cy="10.327" r="2.5"/><circle fill="#E365A6" transform="rotate(-101 266.601 8.257)" cx="266.601" cy="8.257" r="2.5"/><circle fill="#00386C" transform="rotate(-99 276.659 6.501)" cx="276.659" cy="6.501" r="2.5"/><circle fill="#43AE7A" transform="rotate(-97 286.767 5.063)" cx="286.767" cy="5.063" r="2.5"/><circle fill="#43AE7A" transform="rotate(-95 296.915 3.942)" cx="296.915" cy="3.942" r="2.5"/><circle fill="#43AE7A" transform="rotate(-94 307.093 3.141)" cx="307.093" cy="3.141" r="2.5"/><circle fill="#43AE7A" transform="rotate(-92 317.292 2.66)" cx="317.292" cy="2.66" r="2.5"/><circle fill="#00386C" transform="rotate(-90 327.5 2.5)" cx="327.5" cy="2.5" r="2.5"/><circle fill="#E365A6" transform="rotate(-88 337.708 2.66)" cx="337.708" cy="2.66" r="2.5"/><circle fill="#43AE7A" transform="rotate(-86 347.907 3.141)" cx="347.907" cy="3.141" r="2.5"/><circle fill="#43AE7A" transform="rotate(-85 358.085 3.942)" cx="358.085" cy="3.942" r="2.5"/><circle fill="#43AE7A" transform="rotate(-83 368.233 5.063)" cx="368.233" cy="5.063" r="2.5"/><circle fill="#43AE7A" transform="rotate(-81 378.341 6.501)" cx="378.341" cy="6.501" r="2.5"/><circle fill="#FCC79B" transform="rotate(-79 388.399 8.257)" cx="388.399" cy="8.257" r="2.5"/><circle fill="#43AE7A" transform="rotate(-77 398.397 10.327)" cx="398.397" cy="10.327" r="2.5"/><circle fill="#43AE7A" transform="rotate(-76 408.324 12.71)" cx="408.324" cy="12.71" r="2.5"/><circle fill="#43AE7A" transform="rotate(-74 418.172 15.405)" cx="418.172" cy="15.405" r="2.5"/><circle fill="#43AE7A" transform="rotate(-72 427.93 18.407)" cx="427.931" cy="18.407" r="2.5"/><circle fill="#5EEBA7" transform="rotate(-70 437.59 21.714)" cx="437.59" cy="21.714" r="2.5"/><circle fill="#E365A6" transform="rotate(-68 447.14 25.323)" cx="447.14" cy="25.323" r="2.5"/><circle fill="#43AE7A" transform="rotate(-67 456.573 29.23)" cx="456.573" cy="29.23" r="2.5"/><circle fill="#43AE7A" transform="rotate(-65 465.878 33.431)" cx="465.878" cy="33.431" r="2.5"/><circle fill="#00386C" transform="rotate(-63 475.047 37.923)" cx="475.047" cy="37.923" r="2.5"/><circle fill="#43AE7A" transform="rotate(-61 484.07 42.7)" cx="484.07" cy="42.7" r="2.5"/><circle fill="#FCC79B" transform="rotate(-59 492.938 47.759)" cx="492.938" cy="47.759" r="2.5"/><circle fill="#00386C" transform="rotate(-58 501.644 53.093)" cx="501.644" cy="53.093" r="2.5"/><circle fill="#5EEBA7" transform="rotate(-56 510.177 58.699)" cx="510.177" cy="58.699" r="2.5"/><circle fill="#43AE7A" transform="rotate(-54 518.53 64.57)" cx="518.53" cy="64.569" r="2.5"/><circle fill="#43AE7A" transform="rotate(-52 526.695 70.7)" cx="526.695" cy="70.7" r="2.5"/><circle fill="#43AE7A" transform="rotate(-50 534.663 77.083)" cx="534.663" cy="77.083" r="2.5"/><circle fill="#43AE7A" transform="rotate(-49 542.426 83.714)" cx="542.426" cy="83.714" r="2.5"/><circle fill="#43AE7A" transform="rotate(-47 549.978 90.585)" cx="549.978" cy="90.585" r="2.5"/><circle fill="#B0CEEB" transform="rotate(-45 557.31 97.69)" cx="557.31" cy="97.69" r="2.5"/><circle fill="#E365A6" transform="rotate(-43 564.415 105.022)" cx="564.415" cy="105.022" r="2.5"/><circle fill="#43AE7A" transform="rotate(-41 571.286 112.574)" cx="571.286" cy="112.574" r="2.5"/><circle fill="#43AE7A" transform="rotate(-40 577.917 120.337)" cx="577.917" cy="120.337" r="2.5"/><circle fill="#43AE7A" transform="rotate(-38 584.3 128.305)" cx="584.3" cy="128.305" r="2.5"/><circle fill="#43AE7A" transform="rotate(-36 590.43 136.47)" cx="590.431" cy="136.47" r="2.5"/><circle fill="#43AE7A" transform="rotate(-34 596.301 144.823)" cx="596.301" cy="144.823" r="2.5"/><circle fill="#FCC79B" transform="rotate(-32 601.907 153.356)" cx="601.907" cy="153.356" r="2.5"/><circle fill="#43AE7A" transform="rotate(-31 607.241 162.062)" cx="607.241" cy="162.062" r="2.5"/><circle fill="#E365A6" transform="rotate(-29 612.3 170.93)" cx="612.3" cy="170.93" r="2.5"/><circle fill="#43AE7A" transform="rotate(-27 617.077 179.953)" cx="617.077" cy="179.953" r="2.5"/><circle fill="#43AE7A" transform="rotate(-25 621.569 189.122)" cx="621.569" cy="189.122" r="2.5"/><circle fill="#43AE7A" transform="rotate(-23 625.77 198.427)" cx="625.77" cy="198.427" r="2.5"/><circle fill="#B0CEEB" transform="rotate(-22 629.677 207.86)" cx="629.677" cy="207.86" r="2.5"/><circle fill="#43AE7A" transform="rotate(-20 633.286 217.41)" cx="633.286" cy="217.41" r="2.5"/><circle fill="#43AE7A" transform="rotate(-18 636.593 227.07)" cx="636.593" cy="227.069" r="2.5"/><circle fill="#E365A6" transform="rotate(-16 639.595 236.828)" cx="639.595" cy="236.828" r="2.5"/><circle fill="#5EEBA7" transform="rotate(-14 642.29 246.676)" cx="642.29" cy="246.676" r="2.5"/><circle fill="#00386C" transform="rotate(-13 644.673 256.603)" cx="644.673" cy="256.603" r="2.5"/><circle fill="#43AE7A" transform="rotate(-11 646.743 266.601)" cx="646.743" cy="266.601" r="2.5"/><circle fill="#43AE7A" transform="rotate(-9 648.499 276.659)" cx="648.499" cy="276.659" r="2.5"/><circle fill="#43AE7A" transform="rotate(-7 649.937 286.767)" cx="649.937" cy="286.767" r="2.5"/><circle fill="#43AE7A" transform="rotate(-5 651.058 296.915)" cx="651.058" cy="296.915" r="2.5"/><circle fill="#43AE7A" transform="rotate(-4 651.859 307.093)" cx="651.859" cy="307.093" r="2.5"/><circle fill="#43AE7A" transform="rotate(-2 652.34 317.292)" cx="652.34" cy="317.292" r="2.5"/></g><mask id="h" maskUnits="userSpaceOnUse" x="391" y="7" width="213" height="155"><path fill="#fff" d="M391 7h213v155H391z"/></mask><mask id="g" maskUnits="userSpaceOnUse" x="50" y="7" width="213" height="155"><path fill="#fff" d="M50 7h213v155H50z"/></mask><mask id="f" maskUnits="userSpaceOnUse" x="52" y="496" width="213" height="155"><path fill="#fff" d="M52 496h213v155H52z"/></mask><mask id="d" maskUnits="userSpaceOnUse" x="391" y="495" width="213" height="155"><path fill="#fff" d="M391 495h213v155H391z"/></mask><mask id="k" x="0" y="0" width="20" height="117"><path fill="#fff" d="M0 0h20v117H0zm0 206h20v130H0z"/></mask><g id="i"><path d="M89 44.5C89 69.077 69.076 89 44.5 89 19.923 89 0 69.077 0 44.5S19.923 0 44.5 0C69.076 0 89 19.923 89 44.5" fill="#00386C"/><path d="M50.85 53.252H21.23a2.472 2.472 0 0 1 0-4.944h29.62a2.472 2.472 0 0 1 0 4.944" fill="#93C8A2"/><path d="M44.5 68.397c-2.414 0-4.797-.36-7.083-1.067a2.473 2.473 0 0 1 1.463-4.724c1.812.561 3.703.846 5.62.846 8.388 0 15.672-5.383 18.125-13.395a2.473 2.473 0 0 1 4.728 1.447C64.26 61.608 55.076 68.396 44.5 68.396" fill="#43AF7A"/><path d="M67.77 40.692H38.15a2.472 2.472 0 0 1 0-4.944h29.62a2.472 2.472 0 0 1 0 4.944" fill="#93C8A2"/><path d="M24.012 40.693a2.473 2.473 0 0 1-2.365-3.197C24.74 27.392 33.924 20.603 44.5 20.603c2.415 0 4.798.36 7.084 1.069a2.472 2.472 0 0 1-1.465 4.722 18.97 18.97 0 0 0-5.619-.846c-8.388 0-15.672 5.383-18.125 13.396a2.475 2.475 0 0 1-2.363 1.749" fill="#43AF7A"/><path d="M61.646 28.799a2.472 2.472 0 1 1-4.945 0 2.472 2.472 0 0 1 4.945 0M32.298 60.205a2.472 2.472 0 1 1-4.944 0 2.472 2.472 0 0 1 4.944 0" fill="#93C8A2"/></g></defs><use x="-85" y="-495" xlink:href="#c" mask="url(#d)"/><use x="-40" y="-495" xlink:href="#e" mask="url(#f)"/><use x="-40" y="167" xlink:href="#e" mask="url(#g)"/><use x="-85" y="167" xlink:href="#c" mask="url(#h)"/><use x="221" y="117" xlink:href="#i"/><use x="264" xlink:href="#j" mask="url(#k)"/><use x="264" xlink:href="#l" mask="url(#k)"/><use x="264" xlink:href="#m" mask="url(#k)"/></svg>